<svg xmlns="http://www.w3.org/2000/svg" width="297.63" height="35" viewBox="0 0 297.63 35"><rect class="svg__rect" x="0" y="0" width="148.76" height="35" fill="#215CAF"/><rect class="svg__rect" x="146.76" y="0" width="150.87" height="35" fill="#A7117A"/><path class="svg__text" d="M19.80 22L14.22 22L14.22 13.47L19.75 13.47L19.75 14.66L15.70 14.66L15.70 17.02L19.20 17.02L19.20 18.19L15.70 18.19L15.70 20.82L19.80 20.82L19.80 22ZM25.67 14.66L23.04 14.66L23.04 13.47L29.80 13.47L29.80 14.66L27.14 14.66L27.14 22L25.67 22L25.67 14.66ZM35.04 22L33.56 22L33.56 13.47L35.04 13.47L35.04 17.02L38.86 17.02L38.86 13.47L40.33 13.47L40.33 22L38.86 22L38.86 18.21L35.04 18.21L35.04 22ZM50.65 22L45.07 22L45.07 13.47L50.61 13.47L50.61 14.66L46.56 14.66L46.56 17.02L50.06 17.02L50.06 18.19L46.56 18.19L46.56 20.82L50.65 20.82L50.65 22ZM56.33 22L54.85 22L54.85 13.47L57.85 13.47Q59.32 13.47 60.13 14.13Q60.93 14.79 60.93 16.05L60.93 16.05Q60.93 16.90 60.52 17.48Q60.10 18.06 59.36 18.37L59.36 18.37L61.28 21.92L61.28 22L59.69 22L57.98 18.71L56.33 18.71L56.33 22ZM56.33 14.66L56.33 17.52L57.85 17.52Q58.60 17.52 59.02 17.15Q59.45 16.77 59.45 16.11L59.45 16.11Q59.45 15.43 59.06 15.05Q58.67 14.68 57.89 14.66L57.89 14.66L56.33 14.66ZM70.90 22L65.32 22L65.32 13.47L70.86 13.47L70.86 14.66L66.81 14.66L66.81 17.02L70.31 17.02L70.31 18.19L66.81 18.19L66.81 20.82L70.90 20.82L70.90 22ZM74.96 19.16L74.96 19.16L74.96 13.47L76.44 13.47L76.44 19.18Q76.44 20.03 76.87 20.48Q77.31 20.93 78.15 20.93L78.15 20.93Q79.86 20.93 79.86 19.13L79.86 19.13L79.86 13.47L81.34 13.47L81.34 19.17Q81.34 20.53 80.47 21.32Q79.60 22.12 78.15 22.12L78.15 22.12Q76.68 22.12 75.82 21.33Q74.96 20.55 74.96 19.16ZM87.38 22L85.91 22L85.91 13.47L87.83 13.47L90.29 20.01L92.74 13.47L94.66 13.47L94.66 22L93.18 22L93.18 19.19L93.33 15.43L90.81 22L89.75 22L87.24 15.43L87.38 19.19L87.38 22ZM106.94 22L105.47 22L105.47 13.47L106.94 13.47L106.94 22ZM111.32 19.42L111.32 19.42L112.80 19.42Q112.80 20.15 113.28 20.55Q113.76 20.95 114.66 20.95L114.66 20.95Q115.43 20.95 115.82 20.63Q116.21 20.32 116.21 19.80L116.21 19.80Q116.21 19.24 115.82 18.94Q115.42 18.63 114.39 18.32Q113.36 18.01 112.75 17.63L112.75 17.63Q111.58 16.90 111.58 15.72L111.58 15.72Q111.58 14.69 112.42 14.02Q113.26 13.35 114.61 13.35L114.61 13.35Q115.50 13.35 116.19 13.68Q116.89 14.01 117.29 14.61Q117.69 15.22 117.69 15.96L117.69 15.96L116.21 15.96Q116.21 15.29 115.79 14.91Q115.37 14.54 114.59 14.54L114.59 14.54Q113.87 14.54 113.47 14.85Q113.06 15.16 113.06 15.71L113.06 15.71Q113.06 16.18 113.50 16.50Q113.93 16.81 114.93 17.10Q115.92 17.40 116.53 17.78Q117.13 18.16 117.41 18.65Q117.69 19.13 117.69 19.79L117.69 19.79Q117.69 20.86 116.88 21.49Q116.06 22.12 114.66 22.12L114.66 22.12Q113.73 22.12 112.96 21.77Q112.18 21.43 111.75 20.83Q111.32 20.22 111.32 19.42ZM128.74 22L127.20 22L130.42 13.47L131.75 13.47L134.98 22L133.43 22L132.73 20.01L129.43 20.01L128.74 22ZM131.08 15.28L129.85 18.82L132.32 18.82L131.08 15.28Z" fill="#FFFFFF"/><path class="svg__text" d="M164.92 22L160.95 22L160.95 13.60L164.92 13.60Q166.30 13.60 167.37 14.12Q168.44 14.63 169.03 15.58Q169.61 16.53 169.61 17.80L169.61 17.80Q169.61 19.07 169.03 20.02Q168.44 20.97 167.37 21.48Q166.30 22 164.92 22L164.92 22ZM163.33 15.50L163.33 20.10L164.83 20.10Q165.90 20.10 166.56 19.49Q167.21 18.88 167.21 17.80L167.21 17.80Q167.21 16.72 166.56 16.11Q165.90 15.50 164.83 15.50L164.83 15.50L163.33 15.50ZM175.76 22L173.33 22L177.04 13.60L179.39 13.60L183.10 22L180.64 22L179.97 20.37L176.42 20.37L175.76 22ZM178.20 15.93L177.11 18.61L179.28 18.61L178.20 15.93ZM189.64 22L187.26 22L187.26 13.60L191.10 13.60Q192.24 13.60 193.08 13.98Q193.92 14.35 194.38 15.06Q194.83 15.76 194.83 16.71L194.83 16.71Q194.83 17.62 194.40 18.30Q193.98 18.98 193.19 19.36L193.19 19.36L195.00 22L192.45 22L190.93 19.77L189.64 19.77L189.64 22ZM189.64 15.47L189.64 17.93L190.95 17.93Q191.69 17.93 192.06 17.61Q192.43 17.29 192.43 16.71L192.43 16.71Q192.43 16.12 192.06 15.79Q191.69 15.47 190.95 15.47L190.95 15.47L189.64 15.47ZM201.98 22L199.62 22L199.62 13.60L201.98 13.60L201.98 17.09L205.23 13.60L207.84 13.60L204.41 17.32L208.02 22L205.26 22L202.86 18.95L201.98 19.90L201.98 22ZM221.48 22L219.10 22L219.10 13.60L225.69 13.60L225.69 15.44L221.48 15.44L221.48 17.28L225.19 17.28L225.19 19.12L221.48 19.12L221.48 22ZM229.86 17.80L229.86 17.80Q229.86 16.55 230.46 15.55Q231.07 14.56 232.13 14.00Q233.19 13.43 234.52 13.43L234.52 13.43Q235.85 13.43 236.92 14.00Q237.98 14.56 238.59 15.55Q239.19 16.55 239.19 17.80L239.19 17.80Q239.19 19.05 238.59 20.04Q237.98 21.04 236.92 21.60Q235.86 22.17 234.52 22.17L234.52 22.17Q233.19 22.17 232.13 21.60Q231.07 21.04 230.46 20.04Q229.86 19.05 229.86 17.80ZM232.26 17.80L232.26 17.80Q232.26 18.51 232.56 19.05Q232.86 19.60 233.38 19.90Q233.89 20.20 234.52 20.20L234.52 20.20Q235.16 20.20 235.68 19.90Q236.19 19.60 236.49 19.05Q236.79 18.51 236.79 17.80L236.79 17.80Q236.79 17.09 236.49 16.54Q236.19 16 235.68 15.70Q235.16 15.40 234.52 15.40L234.52 15.40Q233.89 15.40 233.37 15.70Q232.86 16 232.56 16.54Q232.26 17.09 232.26 17.80ZM246.30 22L243.92 22L243.92 13.60L247.77 13.60Q248.91 13.60 249.75 13.98Q250.58 14.35 251.04 15.06Q251.50 15.76 251.50 16.71L251.50 16.71Q251.50 17.62 251.07 18.30Q250.64 18.98 249.85 19.36L249.85 19.36L251.66 22L249.12 22L247.60 19.77L246.30 19.77L246.30 22ZM246.30 15.47L246.30 17.93L247.62 17.93Q248.35 17.93 248.72 17.61Q249.10 17.29 249.10 16.71L249.10 16.71Q249.10 16.12 248.72 15.79Q248.35 15.47 247.62 15.47L247.62 15.47L246.30 15.47ZM263.03 22L256.29 22L256.29 13.60L262.88 13.60L262.88 15.44L258.64 15.44L258.64 16.85L262.37 16.85L262.37 18.63L258.64 18.63L258.64 20.17L263.03 20.17L263.03 22ZM267.25 21.24L267.25 21.24L268.03 19.49Q268.59 19.86 269.33 20.09Q270.08 20.32 270.80 20.32L270.80 20.32Q272.16 20.32 272.17 19.64L272.17 19.64Q272.17 19.28 271.78 19.11Q271.39 18.93 270.52 18.74L270.52 18.74Q269.57 18.53 268.94 18.30Q268.30 18.06 267.85 17.55Q267.40 17.03 267.40 16.16L267.40 16.16Q267.40 15.39 267.81 14.77Q268.23 14.15 269.07 13.79Q269.90 13.43 271.11 13.43L271.11 13.43Q271.94 13.43 272.74 13.62Q273.55 13.80 274.16 14.17L274.16 14.17L273.43 15.93Q272.23 15.28 271.10 15.28L271.10 15.28Q270.39 15.28 270.07 15.49Q269.74 15.70 269.74 16.04L269.74 16.04Q269.74 16.37 270.13 16.54Q270.51 16.71 271.36 16.89L271.36 16.89Q272.32 17.10 272.95 17.33Q273.58 17.56 274.05 18.07Q274.51 18.58 274.51 19.46L274.51 19.46Q274.51 20.21 274.09 20.83Q273.67 21.44 272.83 21.80Q271.99 22.17 270.79 22.17L270.79 22.17Q269.77 22.17 268.81 21.92Q267.85 21.67 267.25 21.24ZM280.88 15.48L278.29 15.48L278.29 13.60L285.82 13.60L285.82 15.48L283.25 15.48L283.25 22L280.88 22L280.88 15.48Z" fill="#FFFFFF" x="159.76"/></svg>